<svg width="20" height="20" viewBox="0 0 20 20" fill="none" xmlns="http://www.w3.org/2000/svg">
<path d="M6.49935 1.66666H13.4993C16.166 1.66666 18.3327 3.83333 18.3327 6.5V13.5C18.3327 14.7819 17.8235 16.0113 16.917 16.9177C16.0106 17.8241 14.7812 18.3333 13.4993 18.3333H6.49935C3.83268 18.3333 1.66602 16.1667 1.66602 13.5V6.5C1.66602 5.21812 2.17524 3.98874 3.08167 3.08231C3.98809 2.17589 5.21747 1.66666 6.49935 1.66666ZM6.33268 3.33333C5.53703 3.33333 4.77397 3.6494 4.21136 4.21201C3.64875 4.77462 3.33268 5.53768 3.33268 6.33333V13.6667C3.33268 15.325 4.67435 16.6667 6.33268 16.6667H13.666C14.4617 16.6667 15.2247 16.3506 15.7873 15.788C16.3499 15.2254 16.666 14.4623 16.666 13.6667V6.33333C16.666 4.675 15.3243 3.33333 13.666 3.33333H6.33268ZM14.3743 4.58333C14.6506 4.58333 14.9156 4.69308 15.1109 4.88843C15.3063 5.08378 15.416 5.34873 15.416 5.625C15.416 5.90126 15.3063 6.16622 15.1109 6.36157C14.9156 6.55692 14.6506 6.66666 14.3743 6.66666C14.0981 6.66666 13.8331 6.55692 13.6378 6.36157C13.4424 6.16622 13.3327 5.90126 13.3327 5.625C13.3327 5.34873 13.4424 5.08378 13.6378 4.88843C13.8331 4.69308 14.0981 4.58333 14.3743 4.58333ZM9.99935 5.83333C11.1044 5.83333 12.1642 6.27232 12.9456 7.05372C13.727 7.83512 14.166 8.89493 14.166 10C14.166 11.1051 13.727 12.1649 12.9456 12.9463C12.1642 13.7277 11.1044 14.1667 9.99935 14.1667C8.89428 14.1667 7.83447 13.7277 7.05307 12.9463C6.27167 12.1649 5.83268 11.1051 5.83268 10C5.83268 8.89493 6.27167 7.83512 7.05307 7.05372C7.83447 6.27232 8.89428 5.83333 9.99935 5.83333ZM9.99935 7.5C9.33631 7.5 8.70042 7.76339 8.23158 8.23223C7.76274 8.70107 7.49935 9.33696 7.49935 10C7.49935 10.663 7.76274 11.2989 8.23158 11.7678C8.70042 12.2366 9.33631 12.5 9.99935 12.5C10.6624 12.5 11.2983 12.2366 11.7671 11.7678C12.236 11.2989 12.4993 10.663 12.4993 10C12.4993 9.33696 12.236 8.70107 11.7671 8.23223C11.2983 7.76339 10.6624 7.5 9.99935 7.5Z" fill="#FDFDFD"/>
</svg>
