<svg width="20" height="20" viewBox="0 0 20 20" fill="none" xmlns="http://www.w3.org/2000/svg">
<g id="mdi:web">
<path id="Vector" d="M13.6327 11.6665C13.6993 11.1165 13.7493 10.5665 13.7493 9.99984C13.7493 9.43317 13.6993 8.88317 13.6327 8.33317H16.4493C16.5827 8.8665 16.666 9.42484 16.666 9.99984C16.666 10.5748 16.5827 11.1332 16.4493 11.6665M12.1577 16.2998C12.6577 15.3748 13.041 14.3748 13.3077 13.3332H15.766C14.9587 14.7234 13.6778 15.7765 12.1577 16.2998ZM11.9493 11.6665H8.04935C7.96602 11.1165 7.91602 10.5665 7.91602 9.99984C7.91602 9.43317 7.96602 8.87484 8.04935 8.33317H11.9493C12.0243 8.87484 12.0827 9.43317 12.0827 9.99984C12.0827 10.5665 12.0243 11.1165 11.9493 11.6665ZM9.99935 16.6332C9.30768 15.6332 8.74935 14.5248 8.40768 13.3332H11.591C11.2493 14.5248 10.691 15.6332 9.99935 16.6332ZM6.66602 6.6665H4.23268C5.03155 5.27237 6.31156 4.21754 7.83268 3.69984C7.33268 4.62484 6.95768 5.62484 6.66602 6.6665ZM4.23268 13.3332H6.66602C6.95768 14.3748 7.33268 15.3748 7.83268 16.2998C6.31457 15.7768 5.03626 14.7233 4.23268 13.3332ZM3.54935 11.6665C3.41602 11.1332 3.33268 10.5748 3.33268 9.99984C3.33268 9.42484 3.41602 8.8665 3.54935 8.33317H6.36602C6.29935 8.88317 6.24935 9.43317 6.24935 9.99984C6.24935 10.5665 6.29935 11.1165 6.36602 11.6665M9.99935 3.35817C10.691 4.35817 11.2493 5.47484 11.591 6.6665H8.40768C8.74935 5.47484 9.30768 4.35817 9.99935 3.35817ZM15.766 6.6665H13.3077C13.0465 5.63451 12.6603 4.63826 12.1577 3.69984C13.691 4.22484 14.966 5.28317 15.766 6.6665ZM9.99935 1.6665C5.39102 1.6665 1.66602 5.4165 1.66602 9.99984C1.66602 12.21 2.54399 14.3296 4.10679 15.8924C4.88061 16.6662 5.79927 17.28 6.81032 17.6988C7.82137 18.1176 8.905 18.3332 9.99935 18.3332C12.2095 18.3332 14.3291 17.4552 15.8919 15.8924C17.4547 14.3296 18.3327 12.21 18.3327 9.99984C18.3327 8.90549 18.1171 7.82185 17.6983 6.81081C17.2796 5.79976 16.6657 4.8811 15.8919 4.10728C15.1181 3.33346 14.1994 2.71963 13.1884 2.30084C12.1773 1.88205 11.0937 1.6665 9.99935 1.6665Z" fill="#FDFDFD"/>
</g>
</svg>
